<svg width="25" height="26" viewBox="0 0 25 26" fill="none" xmlns="http://www.w3.org/2000/svg">
<path d="M20 13C20 8.85786 16.6421 5.5 12.5 5.5V10.5C13.8807 10.5 15 11.6193 15 13H20Z" fill="#3E3E3E" fill-opacity="0.45"/>
<path d="M25 13C25 6.09644 19.4036 0.5 12.5 0.5V5.5C16.6421 5.5 20 8.85786 20 13H25Z" fill="#2D2D2D" fill-opacity="0.45"/>
<path d="M12.5 5.5C8.35786 5.5 5 8.85786 5 13H10C10 11.6193 11.1193 10.5 12.5 10.5V5.5Z" fill="#D4D4D4" fill-opacity="0.45"/>
<path d="M12.5 0.5C5.59644 0.5 0 6.09644 0 13H5C5 8.85786 8.35786 5.5 12.5 5.5V0.5Z" fill="#BDBDBD" fill-opacity="0.45"/>
<path d="M5 13C5 17.1421 8.35786 20.5 12.5 20.5V15.5C11.1193 15.5 10 14.3807 10 13H5Z" fill="#C9C9C9" fill-opacity="0.45"/>
<path d="M0 13C0 19.9036 5.59644 25.5 12.5 25.5V20.5C8.35786 20.5 5 17.1421 5 13H0Z" fill="#737373" fill-opacity="0.45"/>
<path d="M12.5 25.5C19.4036 25.5 25 19.9036 25 13H20C20 17.1421 16.6421 20.5 12.5 20.5V25.5Z" fill="#404040" fill-opacity="0.45"/>
<path d="M12.5 20.5C16.6421 20.5 20 17.1421 20 13H15C15 14.3807 13.8807 15.5 12.5 15.5V20.5Z" fill="#575757" fill-opacity="0.45"/>
<path d="M15 13C15 11.6193 13.8807 10.5 12.5 10.5V13H15Z" fill="#676767" fill-opacity="0.45"/>
<path d="M12.5 10.5C11.1193 10.5 10 11.6193 10 13H12.5V10.5Z" fill="#E8E8E8" fill-opacity="0.45"/>
<path d="M10 13C10 14.3807 11.1193 15.5 12.5 15.5V13H10Z" fill="#DCDCDC" fill-opacity="0.45"/>
<path d="M12.5 15.5C13.8807 15.5 15 14.3807 15 13H12.5V15.5Z" fill="#707070" fill-opacity="0.45"/>
<path d="M12 5V5.01537C7.97999 5.26327 4.76327 8.47999 4.51537 12.5H4.5H0.510228C0.765561 6.27028 5.77028 1.26556 12 1.01023V5ZM5.51758 12.5C5.7623 9.03251 8.53251 6.2623 12 6.01758V10V10.0415C10.7437 10.2522 9.75224 11.2437 9.54148 12.5H9.5H5.51758ZM12 12.5H10.563C10.7439 11.7972 11.2972 11.2439 12 11.063V12.5ZM14.437 12.5H13V11.063C13.7028 11.2439 14.2561 11.7972 14.437 12.5ZM15.4585 12.5C15.2478 11.2437 14.2563 10.2522 13 10.0415V10V6.01758C16.4675 6.2623 19.2377 9.03251 19.4824 12.5H15.5H15.4585ZM20.4846 12.5C20.2367 8.47999 17.02 5.26327 13 5.01537V5V1.01023C19.2297 1.26556 24.2344 6.27028 24.4898 12.5H20.5H20.4846ZM20.5 13.5H24.4898C24.2344 19.7297 19.2297 24.7344 13 24.9898V21V20.9846C17.02 20.7367 20.2367 17.52 20.4846 13.5H20.5ZM12 21V24.9898C5.77028 24.7344 0.765561 19.7297 0.510228 13.5H4.5H4.51537C4.76327 17.52 7.97999 20.7367 12 20.9846V21ZM12 19.9824C8.53251 19.7377 5.7623 16.9675 5.51758 13.5H9.5H9.54148C9.75224 14.7563 10.7437 15.7478 12 15.9585V16V19.9824ZM12 14.937C11.2972 14.7561 10.7439 14.2028 10.563 13.5H12V14.937ZM13 14.937V13.5H14.437C14.2561 14.2028 13.7028 14.7561 13 14.937ZM13 15.9585C14.2563 15.7478 15.2478 14.7563 15.4585 13.5H15.5H19.4824C19.2377 16.9675 16.4675 19.7377 13 19.9824V16V15.9585Z" stroke="white"/>
</svg>
