<svg width="25" height="26" viewBox="0 0 25 26" fill="none" xmlns="http://www.w3.org/2000/svg">
<mask id="path-1-inside-1_188_220" fill="white">
<path d="M25 13C25 19.9036 19.4036 25.5 12.5 25.5C5.59644 25.5 0 19.9036 0 13C0 6.09644 5.59644 0.5 12.5 0.5C19.4036 0.5 25 6.09644 25 13Z"/>
</mask>
<path d="M12.5 13L12.1482 13.3553L12.4986 13.7022L12.8504 13.3567L12.5 13ZM5.92614 5.78661C5.72992 5.59231 5.41334 5.59386 5.21904 5.79008C5.02474 5.98629 5.02629 6.30287 5.22251 6.49717L5.92614 5.78661ZM16.6341 9.64051C16.8312 9.44701 16.834 9.13044 16.6405 8.93343C16.447 8.73642 16.1304 8.73356 15.9334 8.92706L16.6341 9.64051ZM10.7282 23.3918C11.0006 23.4374 11.2583 23.2536 11.3039 22.9812C11.3496 22.7089 11.1657 22.4511 10.8934 22.4055L10.7282 23.3918ZM7.79681 21.3056C7.5514 21.179 7.24982 21.2753 7.12322 21.5208C6.99661 21.7662 7.09292 22.0677 7.33832 22.1943L7.79681 21.3056ZM5.98933 21.3095C6.21251 21.4721 6.52526 21.423 6.68788 21.1999C6.85051 20.9767 6.80142 20.6639 6.57824 20.5013L5.98933 21.3095ZM5.32118 19.3072C5.14752 19.0925 4.83269 19.0592 4.61799 19.2329C4.40329 19.4065 4.37002 19.7214 4.54368 19.9361L5.32118 19.3072ZM12.8518 12.6447L5.92614 5.78661L5.22251 6.49717L12.1482 13.3553L12.8518 12.6447ZM12.8504 13.3567L16.6341 9.64051L15.9334 8.92706L12.1496 12.6433L12.8504 13.3567ZM10.8934 22.4055C9.69645 22.2051 8.9025 21.8761 7.79681 21.3056L7.33832 22.1943C8.49549 22.7913 9.39204 23.168 10.7282 23.3918L10.8934 22.4055ZM6.57824 20.5013C6.0179 20.093 5.75378 19.842 5.32118 19.3072L4.54368 19.9361C5.03142 20.5391 5.35906 20.8502 5.98933 21.3095L6.57824 20.5013ZM24 13C24 19.3513 18.8513 24.5 12.5 24.5V26.5C19.9558 26.5 26 20.4558 26 13H24ZM12.5 24.5C6.14873 24.5 1 19.3513 1 13H-1C-1 20.4558 5.04416 26.5 12.5 26.5V24.5ZM1 13C1 6.64873 6.14873 1.5 12.5 1.5V-0.5C5.04416 -0.5 -1 5.54416 -1 13H1ZM12.5 1.5C18.8513 1.5 24 6.64873 24 13H26C26 5.54416 19.9558 -0.5 12.5 -0.5V1.5Z" fill="white" mask="url(#path-1-inside-1_188_220)"/>
</svg>
