<svg width="32" height="32" viewBox="0 0 32 32" fill="none" xmlns="http://www.w3.org/2000/svg">
<path d="M16.177 20.6317L9.54093 22.5366L11.3229 15.9004L23.9614 3.3041C23.9614 3.3041 24.7487 2.50114 25.3939 1.89085C25.8782 1.43268 26.3261 1.09072 26.8686 1.03061C27.5708 0.952805 28.1037 0.998696 28.6505 1.46073C29.5107 2.18762 29.7196 2.38239 30.4939 3.24265C30.8986 3.69239 31.0507 4.30565 30.9854 5.02457C30.9204 5.74071 30.6812 6.16158 30.1866 6.6836C29.5754 7.32878 28.7427 8.12757 28.7427 8.12757L16.177 20.6317Z" fill="#0E4B90"/>
<path d="M11.2614 4.16434C11.2614 4.16434 7.08311 4.16434 3.76505 4.16434C3.15498 4.16434 2.45819 4.39033 1.92169 4.90168C1.38518 5.41304 1 6.00389 1 6.6836C1 10.9233 0.999999 19.3416 1 27.4522C1 28.4353 1.21347 29.2918 1.92169 30.0329C2.48534 30.6228 2.94919 30.8931 3.76505 30.8931C8.2813 30.8931 22.8439 30.8931 26.377 30.8931C27.2787 30.8931 27.789 30.5054 28.4662 29.91C29.029 29.4152 29.2649 28.4615 29.2649 27.4522C29.2649 24.9329 29.2649 20.6932 29.2649 20.6932M16.177 20.6317L9.54093 22.5366L11.3229 15.9004M16.177 20.6317L11.3229 15.9004M16.177 20.6317L28.7427 8.12757M11.3229 15.9004L23.9614 3.3041M23.9614 3.3041C23.9614 3.3041 24.7487 2.50114 25.3939 1.89085C25.8782 1.43268 26.3261 1.09072 26.8686 1.03061C27.5708 0.952805 28.1037 0.998696 28.6505 1.46073C29.5107 2.18762 29.7196 2.38239 30.4939 3.24265C30.8986 3.69239 31.0507 4.30565 30.9854 5.02457C30.9204 5.74071 30.6812 6.16158 30.1866 6.6836C29.5754 7.32878 28.7427 8.12757 28.7427 8.12757M23.9614 3.3041L28.7427 8.12757" stroke="white" stroke-linecap="round"/>
</svg>
