<svg width="27" height="26" viewBox="0 0 27 26" fill="none" xmlns="http://www.w3.org/2000/svg">
<path d="M2.73049 19.4225L1.36313 25.2889L7.14133 23.8333M2.73049 19.4225L4.93591 21.6279M2.73049 19.4225L9.0821 13.0709M7.14133 23.8333L4.93591 21.6279M7.14133 23.8333L13.537 17.4682M19.6681 2.48488L21.3001 0.852867C21.6156 0.560983 22.083 0.5 22.4028 0.5C22.8998 0.5 23.2779 0.72242 23.6379 1.0293C24.3995 1.67869 25.0007 2.21379 25.4463 2.79364C25.8919 3.37348 25.9376 3.62755 25.9756 3.94045C26.0197 4.3038 26.0577 5.00957 25.5786 5.48425L24.1231 6.93286M19.6681 2.48488L24.1231 6.93286M19.6681 2.48488L17.3304 4.82262M24.1231 6.93286L21.7671 9.27757M17.3304 4.82262L19.5487 7.0501M17.3304 4.82262L13.4488 8.70416M21.7671 9.27757L19.5487 7.0501M21.7671 9.27757L17.9038 13.122M19.5487 7.0501L4.93591 21.6279M13.537 17.4682L15.9189 19.9518C15.9189 19.9518 15.4235 22.37 17.4627 24.2303C19.9769 26.5239 23.1086 24.8919 23.1086 24.8919L19.6681 21.6279L21.9876 19.3784L25.4463 22.7747C25.4463 22.7747 26.7916 19.0696 24.6524 16.9965C22.5131 14.9234 20.2856 15.4086 20.2856 15.4086L17.9038 13.122M13.537 17.4682L17.9038 13.122M13.4488 8.70416L11.067 6.23409C11.067 6.23409 11.5483 3.87595 9.6114 1.95558C7.03106 -0.602709 3.67882 1.05135 3.67882 1.05135L7.20749 4.46975L4.93591 6.67517L1.38518 3.30088C1.38518 3.30088 0.0398851 7.17686 2.37762 9.36578C3.96552 10.8526 6.70024 10.6449 6.70024 10.6449L9.0821 13.0709M13.4488 8.70416L9.0821 13.0709" stroke="white" stroke-linejoin="round"/>
</svg>
