<svg width="27" height="27" viewBox="0 0 27 27" fill="none" xmlns="http://www.w3.org/2000/svg">
<path d="M3.00472 5.65802L1 1L5.65802 3.06368L3.00472 5.65802Z" stroke="white"/>
<path d="M3.29953 11.3184L5.0684 10.6698L7.13207 12.7335C7.13207 12.7335 7.11607 13.6136 7.19104 14.2075C7.61437 17.5616 10.5489 19.7923 14.0307 19.5142C17.7182 19.2196 20.3843 15.3856 19.5141 11.7901C18.7611 8.67854 15.9175 6.71934 12.8514 7.01415C12.0117 6.2435 10.7877 4.95047 10.7877 4.95047L11.4363 3.06368H15.3278L16.0354 4.95047L17.3915 5.48113L19.1014 4.65566L21.9316 7.60377L21.1061 9.37264L21.5778 10.6698L23.5236 11.3184V15.092L21.5778 15.6816L21.1061 17.2146L21.9316 19.0425L19.1014 21.8726L17.3915 20.8703L16.0354 21.342L15.3278 23.4057H11.4363L10.7877 21.342L9.60849 20.8703L7.66274 21.8726L4.83255 19.0425L5.65802 17.2146L5.0684 15.6816L3.29953 15.092V11.3184Z" stroke="white"/>
<path d="M14.5613 17.7453L4.00708 7.13208L5.00943 6.12972L15.9764 17.0377L14.5613 17.7453Z" stroke="white"/>
<path d="M7.13207 4.125L6.12972 5.0684L16.9198 15.8585L17.6274 14.6792L7.13207 4.125Z" stroke="white"/>
<path d="M20.4575 23.7005L20.0448 23.2877L23.1698 20.1627L23.5825 20.5165L20.4575 23.7005Z" stroke="white"/>
<path d="M22.7571 26L21.5189 24.8208L24.7618 21.6368L25.941 22.816L22.7571 26Z" stroke="white"/>
</svg>
