<svg width="27" height="30" viewBox="0 0 27 30" fill="none" xmlns="http://www.w3.org/2000/svg">
<path d="M14.1816 0.845827V17.9989C14.1816 18.3176 13.8433 18.483 13.5245 18.483C13.2058 18.483 12.8569 18.3174 12.8675 17.9989C13.0404 12.7769 12.8675 5.27242 12.8675 0.845827C12.8675 0.555854 13.2346 0.5 13.5245 0.5C13.8145 0.5 14.1819 0.555855 14.1816 0.845827Z" fill="white"/>
<path d="M19.4728 5.27242C30.1423 11.1363 27.4254 28.8232 13.5591 28.8232C-0.307199 28.8232 -3.30077 10.9979 7.64547 5.27242M14.1816 17.9989C14.1816 13.676 14.1816 4.18595 14.1816 0.845827C14.1819 0.555855 13.8145 0.500001 13.5245 0.5C13.2346 0.499999 12.8675 0.555854 12.8675 0.845827C12.8675 5.27242 13.0404 12.7769 12.8675 17.9989C12.8569 18.3174 13.2058 18.483 13.5245 18.483C13.8433 18.483 14.1816 18.3176 14.1816 17.9989Z" stroke="white"/>
</svg>
