<svg width="32" height="32" viewBox="0 0 32 32" fill="none" xmlns="http://www.w3.org/2000/svg">
<path d="M24.1727 16.2498C24.1727 20.6482 20.6134 24.2139 16.2227 24.2139C11.832 24.2139 8.27271 20.6482 8.27271 16.2498C8.27271 11.8513 11.832 8.28564 16.2227 8.28564C20.6134 8.28564 24.1727 11.8513 24.1727 16.2498Z" fill="#0E4B90"/>
<path fill-rule="evenodd" clip-rule="evenodd" d="M1 13.6288V18.4245L4.35106 19.0639L5.57447 22.1545L3.65957 24.9254L7.01064 28.3357L9.98936 26.4174L12.8617 27.5897L13.6064 31H18.3936L19.0851 27.643L22.0638 26.4174L24.9362 28.3357L28.2872 24.9254L26.4787 22.1545L27.7021 19.0639L31 18.4245V13.6288L27.6489 12.9361L26.4255 9.95204L28.2872 7.0746L24.9362 3.61101L22.0638 5.58259L19.0319 4.35702L18.3936 1H13.5532L12.9149 4.35702L9.98936 5.52931L7.01064 3.6643L3.65957 7.12789L5.57447 9.95204L4.35106 12.9361L1 13.6288ZM16.2227 24.2139C20.6134 24.2139 24.1727 20.6482 24.1727 16.2498C24.1727 11.8513 20.6134 8.28564 16.2227 8.28564C11.832 8.28564 8.27271 11.8513 8.27271 16.2498C8.27271 20.6482 11.832 24.2139 16.2227 24.2139Z" fill="#0E4B90"/>
<path d="M24.1727 16.2498C24.1727 20.6482 20.6134 24.2139 16.2227 24.2139C11.832 24.2139 8.27271 20.6482 8.27271 16.2498C8.27271 11.8513 11.832 8.28564 16.2227 8.28564C20.6134 8.28564 24.1727 11.8513 24.1727 16.2498Z" stroke="white" stroke-miterlimit="15.9925" stroke-linejoin="round"/>
<path fill-rule="evenodd" clip-rule="evenodd" d="M1 13.6288V18.4245L4.35106 19.0639L5.57447 22.1545L3.65957 24.9254L7.01064 28.3357L9.98936 26.4174L12.8617 27.5897L13.6064 31H18.3936L19.0851 27.643L22.0638 26.4174L24.9362 28.3357L28.2872 24.9254L26.4787 22.1545L27.7021 19.0639L31 18.4245V13.6288L27.6489 12.9361L26.4255 9.95204L28.2872 7.0746L24.9362 3.61101L22.0638 5.58259L19.0319 4.35702L18.3936 1H13.5532L12.9149 4.35702L9.98936 5.52931L7.01064 3.6643L3.65957 7.12789L5.57447 9.95204L4.35106 12.9361L1 13.6288ZM16.2227 24.2139C20.6134 24.2139 24.1727 20.6482 24.1727 16.2498C24.1727 11.8513 20.6134 8.28564 16.2227 8.28564C11.832 8.28564 8.27271 11.8513 8.27271 16.2498C8.27271 20.6482 11.832 24.2139 16.2227 24.2139Z" stroke="white" stroke-miterlimit="15.9925" stroke-linejoin="round"/>
</svg>
