<svg width="27" height="26" viewBox="0 0 27 26" fill="none" xmlns="http://www.w3.org/2000/svg">
<path d="M1.00345 25.022C0.845263 18.5144 6.14875 12.9949 12.6576 12.8933C14.1777 12.8696 15.1195 13.0631 16.5071 13.6843M12.6576 12.2605C9.43985 12.2031 6.8713 9.6253 6.85687 6.40711C6.84238 3.17425 9.42519 0.558681 12.6576 0.500951C15.9482 0.44218 18.6839 3.11601 18.6692 6.40711C18.6545 9.68381 15.9338 12.319 12.6576 12.2605ZM19.6184 15.1081C19.163 14.6821 19.2694 14.1147 18.0364 14.8972C16.8034 15.6797 17.2066 15.8604 17.2981 16.4265C17.3572 16.7924 17.3747 17.0062 17.1926 17.3757C17.0178 17.7306 16.7789 17.9948 16.5071 18.114C15.9288 18.3675 15.2686 17.7966 15.2415 19.485C15.2144 21.1734 15.765 20.7095 16.5071 20.8561C16.9002 20.9338 16.9962 21.1125 17.1926 21.4362C17.3994 21.7769 17.4889 22.216 17.3508 22.5436C17.0868 23.1701 16.9174 23.4025 17.8782 24.0201C18.8389 24.6378 19.3155 24.4663 19.6184 24.0201C19.8253 23.7153 20.0938 23.4457 20.6731 23.44C21.2709 23.4342 21.4432 23.7103 21.675 24.0201C22.0548 24.5276 22.3878 24.6826 23.4152 24.0201C24.4426 23.3576 24.0899 23.0429 23.9425 22.5436C23.8427 22.2055 23.7185 21.8138 24.048 21.4362C24.3642 21.0739 24.5003 20.8955 24.8917 20.8561C25.4245 20.8025 26.0257 20.7377 25.9991 19.485C25.9726 18.2324 25.2923 18.459 24.7863 18.2194C24.4442 18.0575 24.3571 17.9334 24.048 17.4812C23.8375 17.1732 23.7957 16.7693 23.9425 16.4265C24.1457 15.9519 24.5697 15.6464 23.3097 14.8972C22.0498 14.1481 22.0233 14.839 21.675 15.1081C21.3143 15.3869 21.1289 15.5368 20.6731 15.53C20.2367 15.5235 19.9077 15.3788 19.6184 15.1081ZM17.9866 19.485C18.0175 18.0305 19.2188 16.8617 20.6731 16.9039C22.0853 16.9449 23.1781 18.0725 23.2081 19.485C23.2387 20.9291 22.1168 22.1363 20.6731 22.1782C19.1881 22.2212 17.955 20.9702 17.9866 19.485Z" stroke="white" stroke-linecap="round"/>
</svg>
