<svg width="21" height="21" viewBox="0 0 21 21" fill="none" xmlns="http://www.w3.org/2000/svg">
<path d="M20.8614 4.26533C20.6854 4.45903 19.6229 5.50494 19.6229 5.50494L15.4815 1.36001C15.4815 1.36001 16.5265 0.275384 16.6814 0.120408C16.8362 -0.0345689 17.1845 -0.0456079 17.378 0.120408C17.5716 0.286423 20.6679 3.38544 20.8614 3.60679C21.0549 3.82815 21.0373 4.07164 20.8614 4.26533Z" fill="black"/>
<path fill-rule="evenodd" clip-rule="evenodd" d="M0 21L2.24482 14.4921L14.243 2.56088L14.7849 3.10321L2.82538 15.0388L3.44464 15.6645L15.4041 3.72301L16.0234 4.34281L4.08618 16.3127L4.6996 16.9325L16.6427 5.00135L17.2232 5.58241L5.31302 17.5523L5.92413 18.1698L17.8812 6.16348L18.4617 6.74454L6.50225 18.7145L0 21ZM1.9739 16.4677L1.08371 19.0631L1.9739 19.9541L4.56705 18.9856L4.72187 17.5136L3.28983 17.7073L3.44464 16.3127L1.9739 16.4677Z" fill="black"/>
</svg>
