<svg width="20" height="20" viewBox="0 0 20 20" fill="none" xmlns="http://www.w3.org/2000/svg">
<path d="M1.70711 0.292893C1.31658 -0.0976311 0.683418 -0.0976311 0.292893 0.292893C-0.0976311 0.683418 -0.0976311 1.31658 0.292893 1.70711L1.70711 0.292893ZM18.2929 19.7071C18.6834 20.0976 19.3166 20.0976 19.7071 19.7071C20.0976 19.3166 20.0976 18.6834 19.7071 18.2929L18.2929 19.7071ZM19.7071 1.70711C20.0976 1.31658 20.0976 0.683418 19.7071 0.292893C19.3166 -0.0976311 18.6834 -0.0976311 18.2929 0.292893L19.7071 1.70711ZM0.292893 18.2929C-0.0976311 18.6834 -0.0976311 19.3166 0.292893 19.7071C0.683418 20.0976 1.31658 20.0976 1.70711 19.7071L0.292893 18.2929ZM0.292893 1.70711L9.29289 10.7071L10.7071 9.29289L1.70711 0.292893L0.292893 1.70711ZM9.29289 10.7071L18.2929 19.7071L19.7071 18.2929L10.7071 9.29289L9.29289 10.7071ZM10.7071 10.7071L19.7071 1.70711L18.2929 0.292893L9.29289 9.29289L10.7071 10.7071ZM18.2929 0.292893L0.292893 18.2929L1.70711 19.7071L19.7071 1.70711L18.2929 0.292893Z" fill="#0E4B90"/>
</svg>
